<?xml version="1.0" encoding="UTF-8" standalone="no"?>
<!DOCTYPE svg PUBLIC "-//W3C//DTD SVG 1.1//EN" "http://www.w3.org/Graphics/SVG/1.1/DTD/svg11.dtd">
<svg version="1.1" xmlns="http://www.w3.org/2000/svg" xmlns:xlink="http://www.w3.org/1999/xlink" preserveAspectRatio="xMidYMid meet" viewBox="-1.0040229885058807 -1 644.0040229885052 644" width="640" height="640"><defs><path d="M640 320C640 496.61 496.61 640 320 640C143.38 640 0 496.61 0 320C0 143.39 143.38 0 320 0C496.61 0 640 143.39 640 320Z" id="eDzMNNJDE"></path><path d="M322.48 221.45L323.72 221.47L324.96 221.5L326.2 221.55L327.43 221.6L328.66 221.66L329.89 221.73L331.12 221.81L332.34 221.9L333.56 222L334.78 222.11L336 222.22L337.21 222.35L338.42 222.48L339.63 222.63L340.83 222.78L342.04 222.94L343.24 223.11L344.43 223.29L345.63 223.48L346.82 223.67L348 223.88L349.19 224.09L350.37 224.32L351.55 224.55L352.73 224.79L353.9 225.04L355.07 225.29L356.24 225.56L357.4 225.83L358.56 226.12L359.72 226.41L360.87 226.71L362.02 227.01L363.17 227.33L364.31 227.65L365.45 227.99L366.58 228.33L367.72 228.68L372.56 230.27L377.34 232.02L382.04 233.91L386.67 235.95L391.22 238.13L395.69 240.44L400.07 242.89L404.37 245.47L408.58 248.18L412.7 251.02L416.73 253.98L420.65 257.06L424.48 260.27L428.21 263.58L431.83 267.01L435.34 270.55L438.74 274.2L442.02 277.95L445.19 281.81L448.25 285.76L451.17 289.81L453.98 293.96L456.66 298.19L459.2 302.51L461.62 306.92L463.9 311.41L466.04 315.99L468.03 320.63L469.89 325.36L471.6 330.15L473.15 335.02L474.56 339.95L475.81 344.94L476.91 349.99L477.84 355.1L478.61 360.27L479.21 365.49L479.65 370.76L479.91 376.08L480 381.44L479.89 387.52L479.55 393.54L478.99 399.5L478.22 405.4L477.23 411.23L476.03 416.98L474.63 422.65L473.03 428.25L471.24 433.75L469.25 439.17L467.07 444.49L464.71 449.72L462.17 454.84L459.46 459.86L456.57 464.77L453.51 469.56L450.29 474.23L446.91 478.79L443.38 483.22L439.69 487.51L435.86 491.68L431.88 495.7L427.76 499.59L423.51 503.32L419.12 506.91L414.61 510.34L409.98 513.62L405.22 516.73L400.35 519.68L395.37 522.46L390.28 525.06L385.09 527.49L379.8 529.73L374.41 531.79L368.94 533.66L363.37 535.33L357.73 536.8L352 538.08L346.2 539.14L340.33 540L321.06 263.95L319.58 242.81L318.11 263.91L298.84 539.87L292.99 538.98L287.22 537.89L281.53 536.6L275.91 535.1L270.38 533.41L264.93 531.52L259.58 529.45L254.31 527.2L249.15 524.76L244.09 522.15L239.14 519.36L234.3 516.41L229.57 513.29L224.97 510.01L220.48 506.58L216.12 502.99L211.9 499.25L207.8 495.37L203.85 491.35L200.04 487.2L196.38 482.9L192.86 478.49L189.51 473.94L186.31 469.28L183.27 464.49L180.4 459.6L177.71 454.6L175.18 449.49L172.84 444.28L170.68 438.97L168.7 433.57L166.92 428.08L165.33 422.51L163.94 416.85L162.75 411.12L161.77 405.31L161 399.43L160.45 393.49L160.11 387.49L160 381.43L160.09 376.07L160.35 370.75L160.78 365.48L161.39 360.27L162.16 355.1L163.09 349.99L164.18 344.93L165.43 339.94L166.84 335.01L168.39 330.15L170.1 325.35L171.95 320.63L173.95 315.98L176.09 311.41L178.37 306.92L180.78 302.51L183.33 298.19L186.01 293.96L188.81 289.81L191.74 285.76L194.79 281.81L197.96 277.95L201.25 274.2L204.65 270.55L208.16 267.01L211.78 263.58L215.5 260.27L219.33 257.06L223.26 253.98L227.28 251.02L231.4 248.18L235.61 245.47L239.91 242.89L244.3 240.44L248.76 238.13L253.31 235.95L257.94 233.91L262.64 232.02L267.42 230.27L272.26 228.68L273.4 228.33L274.53 227.99L275.67 227.65L276.81 227.33L277.96 227.01L279.11 226.71L280.26 226.41L281.42 226.12L282.58 225.83L283.74 225.56L284.91 225.29L286.08 225.04L287.25 224.79L288.43 224.55L289.61 224.32L290.79 224.09L291.97 223.88L293.16 223.67L294.35 223.48L295.55 223.29L296.74 223.11L297.94 222.94L299.15 222.78L300.35 222.63L301.56 222.48L302.77 222.35L303.99 222.22L305.2 222.11L306.42 222L307.64 221.9L308.87 221.81L310.09 221.73L311.32 221.66L312.55 221.6L313.79 221.55L315.02 221.5L316.26 221.47L317.5 221.45L318.75 221.43L319.99 221.43L321.24 221.43L322.48 221.45ZM387.75 449.24L386.48 449.62L385.27 450.13L384.14 450.76L383.09 451.51L382.13 452.37L381.27 453.33L380.52 454.38L379.88 455.51L379.38 456.72L379 457.99L378.77 459.31L378.69 460.68L378.77 462.05L379 463.38L379.38 464.65L379.88 465.85L380.52 466.98L381.27 468.03L382.13 468.99L383.09 469.85L384.14 470.6L385.27 471.24L386.48 471.75L387.75 472.12L389.07 472.35L390.44 472.43L391.81 472.35L393.13 472.12L394.4 471.75L395.61 471.24L396.74 470.6L397.79 469.85L398.75 468.99L399.61 468.03L400.36 466.98L400.99 465.85L401.5 464.65L401.88 463.38L402.11 462.05L402.19 460.68L402.11 459.31L401.88 457.99L401.5 456.72L400.99 455.51L400.36 454.38L399.61 453.33L398.75 452.37L397.79 451.51L396.74 450.76L395.61 450.13L394.4 449.62L393.13 449.24L391.81 449.01L390.44 448.93L389.07 449.01L387.75 449.24ZM211.63 421.21L210.34 421.41L209.07 421.68L207.82 422.02L206.61 422.43L205.43 422.91L204.29 423.45L203.18 424.06L202.12 424.72L201.09 425.45L200.11 426.23L199.18 427.06L198.29 427.95L197.46 428.88L196.68 429.86L195.95 430.89L195.28 431.96L194.68 433.06L194.13 434.21L193.66 435.39L193.24 436.6L192.9 437.84L192.63 439.11L192.44 440.41L192.32 441.73L192.28 443.07L192.32 444.41L192.44 445.73L192.63 447.03L192.9 448.3L193.24 449.54L193.66 450.75L194.13 451.93L194.68 453.08L195.28 454.18L195.95 455.25L196.68 456.28L197.46 457.26L198.29 458.19L199.18 459.08L200.11 459.91L201.09 460.69L202.12 461.42L203.18 462.08L204.29 462.69L205.43 463.23L206.61 463.71L207.82 464.12L209.07 464.46L210.34 464.73L211.63 464.93L212.95 465.05L214.3 465.09L215.64 465.05L216.96 464.93L218.25 464.73L219.53 464.46L220.77 464.12L221.98 463.71L223.16 463.23L224.3 462.69L225.41 462.08L226.48 461.42L227.5 460.69L228.48 459.91L229.42 459.08L230.3 458.19L231.14 457.26L231.92 456.28L232.64 455.25L233.31 454.18L233.91 453.08L234.46 451.93L234.94 450.75L235.35 449.54L235.69 448.3L235.96 447.03L236.15 445.73L236.27 444.41L236.31 443.07L236.27 441.73L236.15 440.41L235.96 439.11L235.69 437.84L235.35 436.6L234.94 435.39L234.46 434.21L233.91 433.06L233.31 431.96L232.64 430.89L231.92 429.86L231.14 428.88L230.3 427.95L229.42 427.06L228.48 426.23L227.5 425.45L226.48 424.72L225.41 424.06L224.3 423.45L223.16 422.91L221.98 422.43L220.77 422.02L219.53 421.68L218.25 421.41L216.96 421.21L215.64 421.09L214.3 421.05L212.95 421.09L211.63 421.21ZM264.48 359.56L263.18 359.76L261.91 360.03L260.67 360.37L259.46 360.78L258.28 361.26L257.13 361.8L256.03 362.41L254.96 363.07L253.93 363.8L252.95 364.58L252.02 365.41L251.13 366.3L250.3 367.23L249.52 368.21L248.79 369.24L248.13 370.31L247.52 371.41L246.98 372.56L246.5 373.74L246.09 374.95L245.75 376.19L245.48 377.46L245.28 378.76L245.16 380.08L245.12 381.42L245.16 382.76L245.28 384.08L245.48 385.38L245.75 386.65L246.09 387.89L246.5 389.1L246.98 390.28L247.52 391.43L248.13 392.53L248.79 393.6L249.52 394.63L250.3 395.61L251.13 396.54L252.02 397.43L252.95 398.26L253.93 399.04L254.96 399.76L256.03 400.43L257.13 401.04L258.28 401.58L259.46 402.06L260.67 402.47L261.91 402.81L263.18 403.08L264.48 403.28L265.8 403.4L267.14 403.44L268.48 403.4L269.8 403.28L271.1 403.08L272.37 402.81L273.61 402.47L274.82 402.06L276 401.58L277.15 401.04L278.25 400.43L279.32 399.76L280.35 399.04L281.33 398.26L282.26 397.43L283.15 396.54L283.98 395.61L284.76 394.63L285.48 393.6L286.15 392.53L286.76 391.43L287.3 390.28L287.78 389.1L288.19 387.89L288.53 386.65L288.8 385.38L289 384.08L289.12 382.76L289.16 381.42L289.12 380.08L289 378.76L288.8 377.46L288.53 376.19L288.19 374.95L287.78 373.74L287.3 372.56L286.76 371.41L286.15 370.31L285.49 369.24L284.76 368.21L283.98 367.23L283.15 366.3L282.26 365.41L281.33 364.58L280.35 363.8L279.32 363.07L278.25 362.41L277.15 361.8L276 361.26L274.82 360.78L273.61 360.37L272.37 360.03L271.1 359.76L269.8 359.56L268.48 359.44L267.14 359.4L265.8 359.44L264.48 359.56ZM423.01 350.75L421.71 350.95L420.44 351.22L419.2 351.56L417.98 351.97L416.81 352.45L415.66 352.99L414.55 353.6L413.49 354.27L412.46 354.99L411.48 355.77L410.55 356.61L409.66 357.49L408.83 358.43L408.05 359.41L407.32 360.43L406.66 361.5L406.05 362.61L405.51 363.75L405.03 364.93L404.62 366.14L404.28 367.38L404.01 368.65L403.81 369.95L403.69 371.27L403.65 372.61L403.69 373.95L403.81 375.27L404.01 376.57L404.28 377.84L404.62 379.08L405.03 380.3L405.51 381.48L406.05 382.62L406.66 383.73L407.32 384.79L408.05 385.82L408.83 386.8L409.66 387.73L410.55 388.62L411.48 389.45L412.46 390.23L413.49 390.96L414.55 391.62L415.66 392.23L416.81 392.77L417.98 393.25L419.2 393.66L420.44 394.01L421.71 394.28L423.01 394.47L424.33 394.59L425.67 394.63L427.01 394.59L428.33 394.47L429.63 394.28L430.9 394.01L432.14 393.66L433.35 393.25L434.53 392.77L435.68 392.23L436.78 391.62L437.85 390.96L438.87 390.23L439.86 389.45L440.79 388.62L441.67 387.73L442.51 386.8L443.29 385.82L444.01 384.79L444.68 383.73L445.29 382.62L445.83 381.48L446.31 380.3L446.72 379.08L447.06 377.84L447.33 376.57L447.53 375.27L447.65 373.95L447.69 372.61L447.65 371.27L447.53 369.95L447.33 368.66L447.06 367.39L446.72 366.14L446.31 364.93L445.83 363.75L445.29 362.61L444.68 361.5L444.01 360.44L443.29 359.41L442.51 358.43L441.67 357.49L440.79 356.61L439.86 355.77L438.87 354.99L437.85 354.27L436.78 353.6L435.68 353L434.53 352.45L433.35 351.97L432.14 351.56L430.9 351.22L429.63 350.95L428.33 350.75L427.01 350.64L425.67 350.59L424.33 350.64L423.01 350.75ZM370.13 369.98L368.86 370.35L367.66 370.86L366.53 371.5L365.48 372.25L364.52 373.11L363.66 374.07L362.9 375.12L362.27 376.25L361.76 377.46L361.39 378.72L361.16 380.05L361.08 381.42L361.16 382.79L361.39 384.11L361.76 385.38L362.27 386.59L362.91 387.72L363.66 388.77L364.52 389.73L365.48 390.59L366.53 391.34L367.66 391.97L368.87 392.48L370.13 392.86L371.46 393.09L372.83 393.17L374.2 393.09L375.52 392.86L376.79 392.48L377.99 391.97L379.12 391.34L380.17 390.59L381.13 389.73L381.99 388.77L382.75 387.72L383.38 386.59L383.89 385.38L384.26 384.11L384.49 382.79L384.57 381.42L384.49 380.05L384.26 378.72L383.89 377.46L383.38 376.25L382.75 375.12L381.99 374.07L381.13 373.11L380.17 372.25L379.12 371.5L377.99 370.86L376.79 370.35L375.52 369.98L374.2 369.75L372.83 369.67L371.45 369.75L370.13 369.98ZM220.44 297.91L219.14 298.11L217.87 298.38L216.63 298.72L215.42 299.13L214.24 299.61L213.1 300.15L211.99 300.76L210.92 301.42L209.9 302.15L208.92 302.93L207.98 303.76L207.1 304.65L206.26 305.58L205.48 306.56L204.76 307.59L204.09 308.65L203.48 309.76L202.94 310.91L202.46 312.08L202.05 313.3L201.71 314.54L201.44 315.81L201.24 317.11L201.13 318.43L201.09 319.77L201.13 321.11L201.24 322.43L201.44 323.73L201.71 325L202.05 326.24L202.46 327.45L202.94 328.63L203.48 329.78L204.09 330.88L204.76 331.95L205.48 332.98L206.26 333.96L207.1 334.89L207.98 335.78L208.92 336.61L209.9 337.39L210.92 338.11L211.99 338.78L213.1 339.39L214.24 339.93L215.42 340.41L216.63 340.82L217.87 341.16L219.14 341.43L220.44 341.63L221.76 341.75L223.1 341.79L224.44 341.75L225.76 341.63L227.06 341.43L228.33 341.16L229.57 340.82L230.79 340.41L231.97 339.93L233.11 339.39L234.22 338.78L235.28 338.11L236.31 337.39L237.29 336.61L238.22 335.78L239.11 334.89L239.94 333.96L240.72 332.98L241.45 331.95L242.12 330.88L242.72 329.78L243.27 328.63L243.74 327.45L244.16 326.24L244.5 325L244.77 323.73L244.96 322.43L245.08 321.11L245.12 319.77L245.08 318.43L244.96 317.11L244.77 315.81L244.5 314.54L244.15 313.3L243.74 312.08L243.27 310.91L242.72 309.76L242.12 308.65L241.45 307.59L240.72 306.56L239.94 305.58L239.11 304.65L238.22 303.76L237.29 302.93L236.31 302.15L235.28 301.42L234.22 300.76L233.11 300.15L231.97 299.61L230.79 299.13L229.57 298.72L228.33 298.38L227.06 298.11L225.76 297.91L224.44 297.79L223.1 297.75L221.76 297.79L220.44 297.91ZM370.16 280.3L368.87 280.49L367.6 280.76L366.35 281.1L365.14 281.51L363.96 281.99L362.82 282.54L361.71 283.14L360.64 283.81L359.62 284.53L358.64 285.31L357.7 286.15L356.82 287.03L355.99 287.97L355.2 288.95L354.48 289.97L353.81 291.04L353.21 292.15L352.66 293.29L352.18 294.47L351.77 295.68L351.43 296.93L351.16 298.2L350.97 299.49L350.85 300.81L350.81 302.15L350.85 303.5L350.97 304.82L351.16 306.11L351.43 307.38L351.77 308.63L352.19 309.84L352.66 311.02L353.21 312.16L353.82 313.27L354.48 314.34L355.21 315.36L355.99 316.34L356.82 317.28L357.71 318.16L358.64 318.99L359.62 319.78L360.65 320.5L361.72 321.17L362.82 321.77L363.97 322.32L365.15 322.79L366.36 323.21L367.6 323.55L368.87 323.82L370.17 324.01L371.48 324.13L372.83 324.17L374.17 324.13L375.49 324.01L376.78 323.82L378.05 323.55L379.3 323.21L380.51 322.79L381.69 322.32L382.83 321.77L383.94 321.17L385.01 320.5L386.03 319.78L387.01 318.99L387.95 318.16L388.83 317.28L389.67 316.34L390.45 315.36L391.17 314.34L391.84 313.27L392.44 312.16L392.99 311.02L393.47 309.84L393.88 308.63L394.22 307.38L394.49 306.11L394.68 304.82L394.8 303.5L394.84 302.15L394.8 300.81L394.68 299.49L394.49 298.2L394.22 296.93L393.88 295.68L393.47 294.47L392.99 293.29L392.44 292.15L391.84 291.04L391.17 289.97L390.45 288.95L389.67 287.97L388.83 287.03L387.95 286.15L387.01 285.31L386.03 284.53L385.01 283.81L383.94 283.14L382.83 282.54L381.69 281.99L380.51 281.51L379.3 281.1L378.05 280.76L376.78 280.49L375.49 280.3L374.17 280.18L372.83 280.14L371.48 280.18L370.16 280.3ZM282.06 264.29L280.79 264.67L279.59 265.18L278.45 265.81L277.4 266.56L276.44 267.42L275.58 268.38L274.83 269.43L274.2 270.57L273.69 271.77L273.31 273.04L273.08 274.36L273 275.73L273.08 277.1L273.31 278.43L273.69 279.7L274.2 280.9L274.83 282.03L275.58 283.08L276.44 284.04L277.4 284.9L278.45 285.65L279.59 286.29L280.79 286.8L282.06 287.17L283.38 287.4L284.75 287.48L286.12 287.4L287.45 287.17L288.72 286.8L289.92 286.29L291.05 285.65L292.1 284.9L293.06 284.04L293.92 283.08L294.67 282.03L295.31 280.9L295.82 279.7L296.19 278.43L296.42 277.1L296.5 275.73L296.42 274.36L296.19 273.04L295.82 271.77L295.31 270.57L294.67 269.43L293.92 268.38L293.06 267.42L292.1 266.56L291.05 265.81L289.92 265.18L288.72 264.67L287.45 264.29L286.12 264.06L284.75 263.98L283.38 264.06L282.06 264.29Z" id="b3mxa8ccgK"></path><path d="M374.64 121.56C377.08 121.93 379.27 120.32 379.68 117.94C380.08 115.56 378.46 113.28 376.07 112.87C375.65 112.83 365.57 111.21 355.6 119.65C345.19 128.44 338.99 144.49 336.94 167.21C331.64 165.29 325.94 164.19 319.98 164.19C315.97 164.19 312.07 164.72 308.33 165.62C306.14 143.73 299.98 128.24 289.82 119.65C279.85 111.22 269.77 112.83 269.35 112.87C266.97 113.28 265.39 115.51 265.76 117.89C266.14 120.27 268.39 121.89 270.77 121.56C271.04 121.52 277.55 120.66 284.36 126.56C290.5 131.88 297.55 143.59 299.73 168.5C282.27 176.26 270.08 193.74 270.08 214.08C270.08 216.11 270.24 218.09 270.47 220.05C286.14 215.24 302.75 212.61 319.98 212.61C337.21 212.61 353.83 215.24 369.5 220.05C369.73 218.09 369.88 216.11 369.88 214.08C369.88 195.82 360.05 179.89 345.4 171.19C347.29 144.31 354.7 132.07 361.06 126.56C367.81 120.72 374.29 121.48 374.64 121.56Z" id="ccZiVmXLO"></path></defs><g><g><use xlink:href="#eDzMNNJDE" opacity="1" fill="#9c0000" fill-opacity="1"></use></g><g><g><use xlink:href="#b3mxa8ccgK" opacity="1" fill="#ffffff" fill-opacity="1"></use></g><g><use xlink:href="#ccZiVmXLO" opacity="1" fill="#ffffff" fill-opacity="1"></use></g></g></g></svg>